<?xml version="1.0" encoding="utf-8"?>
<!-- Generator: Adobe Illustrator 23.0.3, SVG Export Plug-In . SVG Version: 6.00 Build 0)  -->
<svg version="1.1" id="Capa_1" xmlns="http://www.w3.org/2000/svg" xmlns:xlink="http://www.w3.org/1999/xlink" x="0px" y="0px"
	 viewBox="0 0 275.4 58.7" style="enable-background:new 0 0 275.4 58.7;" xml:space="preserve">
<style type="text/css">
	.st0{fill:#FDDC05;}
</style>
<title>logo</title>
<g id="Capa_4">
	<path d="M100.3,7c0,2.2-1.8,3.9-3.9,3.9S92.4,9.2,92.4,7s1.8-3.9,3.9-3.9C98.5,3.1,100.3,4.8,100.3,7C100.3,7,100.3,7,100.3,7z"/>
	<path d="M2.1,17c0-0.1,0.1-0.2,0.1-0.3c0.4-1.7,1.8-3,3.5-3.1c1.8-0.1,3.4,0.9,4,2.6c1.3,3,2.5,5.9,3.7,8.9c0.5,1.2,1,2.5,1.6,3.7
		c0.3-0.2,0.3-0.4,0.4-0.6c1.7-4,3.3-8,5-12c0.6-1.6,2.3-2.7,4-2.5c1.8,0.2,3.2,1.5,3.5,3.2c0.2,0.8,0.1,1.6-0.3,2.4
		c-2.9,6.8-5.9,13.6-8.9,20.4c-0.5,1.5-2,2.5-3.6,2.5c-1.7,0.1-3.2-1-3.8-2.5c-3-6.8-5.9-13.6-8.9-20.4c-0.2-0.4-0.3-0.7-0.4-1.1V17
		z"/>
	<path d="M159,16V8.8c0-0.8,0-1.6,0.1-2.4c0.2-2.1,2-3.6,4.1-3.5c2.2,0.1,3.9,1.9,3.8,4.1c0,2.1,0,4.2,0,6.3c0,4.9,0,9.8,0,14.7
		c0.1,8-6.4,14.6-14.5,14.7c-8,0.1-14.6-6.4-14.7-14.5s6.4-14.6,14.5-14.7c0.8,0,1.6,0.1,2.4,0.2C156.4,14,157.9,14.8,159,16z
		 M152.4,34.7c3.6,0,6.5-3,6.5-6.6s-3-6.5-6.6-6.5s-6.5,3-6.5,6.6S148.8,34.7,152.4,34.7z"/>
	<path d="M41.5,34.5c2.4,1,5.1,0.6,7.1-1.1c0.8-0.6,1.4-1.4,1.8-2.3c0.7-2,2.9-2.9,4.9-2.2c0,0,0.1,0,0.1,0.1c2,0.7,3.1,2.9,2.4,4.9
		c0,0.1,0,0.1-0.1,0.2c-0.7,1.7-1.8,3.3-3.2,4.5c-3.7,3.4-8.1,5-13.1,4c-5.7-1.1-9.6-4.5-11.2-10.1c-1.7-5.3-0.2-11.1,4-14.7
		c5.8-5.6,15-5.4,20.6,0.5c0.1,0.1,0.2,0.2,0.3,0.3c0.5,0.5,1,1.1,1.3,1.8c0.7,1.6,0.2,3.5-1.3,4.5c-1.8,1.3-3.6,2.6-5.4,4l-7.3,5.3
		L41.5,34.5z M42.5,25.5c1.5-1.1,3-2.2,4.6-3.3c0.5-0.3,0.4-0.5-0.1-0.7c-2.3-1-4.9-0.7-6.8,0.8c-2,1.4-3.1,3.7-2.8,6.2
		c0,0.5,0.2,0.7,0.6,0.3C39.5,27.7,41,26.6,42.5,25.5L42.5,25.5z"/>
	<path d="M200.1,32.7c0,2.3,0,4.2,0,6c0,2.2-1.8,4-4.1,4c-0.5,0-1-0.1-1.4-0.3c-0.6-0.2-1.2-0.6-1.6-1.1c-0.3-0.5-0.6-0.4-0.9-0.2
		c-5.6,2.6-11,2.2-15.8-1.8c-4.6-3.5-6.6-9.5-4.8-15c1.3-5.6,6-9.9,11.7-10.6c7.9-1.3,15.4,4.1,16.7,12c0.1,0.3,0.1,0.7,0.1,1
		C200.2,28.9,200,31,200.1,32.7z M185.5,34.7c3.6,0,6.6-2.9,6.6-6.6s-2.9-6.6-6.6-6.6c0,0,0,0,0,0c-3.6,0-6.6,2.9-6.6,6.6
		S181.9,34.7,185.5,34.7C185.5,34.7,185.5,34.7,185.5,34.7z"/>
	<path d="M255.6,42.7c-8,0-14.6-6.5-14.5-14.6s6.5-14.6,14.6-14.5c8,0,14.6,6.5,14.5,14.6c0,0,0,0,0,0.1
		C270.1,36.2,263.6,42.7,255.6,42.7z M255.6,35.2c3.9,0,7-3.1,7-7s-3.1-7-7-7l0,0c-3.9,0-7,3.1-7,7S251.7,35.2,255.6,35.2z"/>
	<path d="M133.8,32.5c0,2,0,4,0,5.9c0.1,1.6-1,3.1-2.5,3.7c-1.6,0.6-3.4,0.1-4.5-1.1c-0.7-0.7-1-1.6-1-2.6c0-3.5,0-6.9,0-10.4
		c-0.1-3.6-3.1-6.5-6.8-6.4c-1,0-2,0.3-3,0.8c-2,1.1-3.2,3.3-3,5.6c0,3.5,0,6.9,0,10.3c0.1,1.7-0.9,3.2-2.5,3.8
		c-1.6,0.6-3.5,0.1-4.6-1.3c-0.6-0.6-0.9-1.5-0.9-2.3c0-4-0.2-8,0.1-12c0.5-6.5,5.4-11.8,11.8-12.8c7.3-1.1,14.4,3.4,16.3,10.6
		c0.4,1.6,0.5,3.2,0.4,4.8L133.8,32.5L133.8,32.5z"/>
	<path d="M61.3,27.8c0.2-7.3,5.7-13.3,12.9-14.1c4.4-0.5,8.4,0.5,11.7,3.6c0.9,0.8,1.4,1.8,1.6,3c0.2,1.5-0.6,2.9-1.9,3.7
		c-1.2,0.9-2.8,0.9-4,0.2c-0.7-0.4-1.4-1-2.1-1.4c-3-2-7.1-1.2-9.1,1.8c-0.4,0.7-0.8,1.4-0.9,2.2c-0.6,2.6,0.4,5.2,2.7,6.7
		c2,1.5,4.8,1.6,6.9,0.3c0.9-0.5,1.6-1.2,2.5-1.7c1.9-1,4.4-0.3,5.4,1.6c0.2,0.3,0.3,0.6,0.4,1c0.3,1.4-0.2,2.9-1.3,3.9
		c-1.9,2-4.4,3.3-7.1,3.7c-5.5,0.9-10.3-0.5-14.1-4.7C62.5,34.9,61.2,31.4,61.3,27.8z"/>
	<path d="M220.3,13.6c0.5,0,0.8,0,1.2,0.1c2,0.2,3.5,1.9,3.4,3.9c0,2-1.5,3.6-3.4,3.9c-0.7,0.1-1.4,0.1-2,0.2
		c-3.4,0.7-5.9,3.6-6,7.1c0,3.2,0,6.5,0,9.7c0,1.8-1.1,3.3-2.8,3.8c-1.8,0.5-3.6-0.2-4.6-1.8c-0.4-0.6-0.6-1.3-0.6-2
		c0-3.3,0-6.6,0-9.9c0.3-7.5,5.9-13.8,13.4-14.8L220.3,13.6z"/>
	<path d="M228.6,28.1c0-3.5,0-7,0-10.6c0-2.2,1.8-4,4-4c0.7,0,1.3,0.2,1.9,0.5c1.4,0.7,2.2,2.2,2.1,3.7v13.5c0,2.5,0,5,0,7.5
		c0,2-1.4,3.6-3.4,4c-2,0.3-4-1-4.5-3c-0.1-0.4-0.1-0.8-0.1-1.3L228.6,28.1z"/>
	<path d="M92.3,28.1c0-3.5,0-7,0-10.5c0-2.2,1.8-4,4-4c0.7,0,1.5,0.2,2.1,0.6c1.2,0.7,1.9,1.9,1.9,3.3c0,7.1,0,14.2,0,21.3
		c0,2.2-1.7,3.9-3.9,3.9c0,0-0.1,0-0.1,0c-2.2,0-4-1.8-4-4C92.3,35.1,92.3,31.6,92.3,28.1z"/>
	<g id="klvWJ5">
		<path d="M270.7,9.6h0.3c0.2,0,0.3,0,0.5,0.1c1,0.3,1.7,1.1,1.9,2.2c0,0,0,0.1,0,0.2v0.3c0,0.2,0,0.4-0.1,0.5
			c-0.2,0.6-0.6,1.1-1.1,1.4c-0.3,0.2-0.7,0.3-1,0.4h-0.2h-0.3c-0.2,0-0.5-0.1-0.7-0.1c-0.9-0.3-1.5-1.1-1.6-2.1c0-0.1,0-0.1,0-0.2
			V12c0,0,0-0.1,0-0.1c0-0.2,0.1-0.5,0.2-0.7c0.2-0.5,0.6-1,1.1-1.3c0.3-0.2,0.6-0.3,0.9-0.3L270.7,9.6z M270.8,14.2
			c1.2,0,2.1-1,2.1-2.1c0-1.2-1-2.2-2.1-2.2c-1.2,0-2.1,1-2.1,2.1c0,0,0,0,0,0C268.6,13.3,269.6,14.2,270.8,14.2z"/>
		<path d="M271.3,12.4L271.3,12.4l0.6,0.9l0,0l-0.3,0.2l0,0l-0.7-1c0,0,0,0,0,0h-0.4l0,0v1l0,0h-0.3l0,0v-2.7l0,0h0.8
			c0.5,0,0.9,0.4,0.9,0.9C271.9,12,271.6,12.3,271.3,12.4L271.3,12.4z M270.4,11.5v0.5l0,0h0.6c0.3-0.1,0.5-0.3,0.4-0.6
			c0-0.2-0.2-0.4-0.4-0.4h-0.5l0,0L270.4,11.5z"/>
	</g>
	<path class="st0" d="M239.1,47.4c-1.8,1.3-4,1.9-6.2,1.9c-2.3,0.1-4.5-0.6-6.4-2c-1.5-1.4-3.8-1.3-5.1,0.2c-1.3,1.4-1.3,3.6,0,5
		c2.6,2.5,7.1,4.1,11.5,4.1c4,0,7.9-1.3,11-3.7c1.5-1.4,1.6-3.7,0.2-5.1C242.7,46.4,240.6,46.3,239.1,47.4L239.1,47.4z"/>
</g>
</svg>
